<svg width="20" height="20" fill="none" xmlns="http://www.w3.org/2000/svg"><g clip-path="url(#clip0)" fill="#E6212A"><path d="M13.258 10.103L20 14.365V5.66l-6.742 4.443zM0 5.66v8.705l6.742-4.262L0 5.66zm18.75-2.535H1.25c-.624 0-1.119.465-1.212 1.064L10 10.752l9.962-6.563c-.093-.599-.588-1.064-1.212-1.064zm-6.637 7.733l-1.77 1.165a.625.625 0 01-.687 0l-1.769-1.167L.04 15.82c.096.594.589 1.055 1.21 1.055h17.5c.621 0 1.114-.461 1.21-1.055l-7.848-4.962z"/></g><defs><clipPath id="clip0"><path fill="#fff" d="M0 0h20v20H0z"/></clipPath></defs></svg>