<svg width="20" height="20" fill="none" xmlns="http://www.w3.org/2000/svg"><path d="M7.5 1.25C3.357 1.25 0 4.049 0 7.5c0 1.99 1.123 3.755 2.864 4.898l-.989 1.977 2.694-1.154a8.512 8.512 0 001.819.453A5.233 5.233 0 016.25 12.5c0-3.446 3.364-6.25 7.5-6.25.379 0 .749.031 1.114.076-.66-2.89-3.704-5.076-7.364-5.076zM5 5.938a.938.938 0 110-1.876.938.938 0 010 1.875zm5 0a.938.938 0 110-1.876.938.938 0 010 1.875z" fill="#E6212A"/><path d="M20 12.5c0-2.761-2.799-5-6.25-5s-6.25 2.239-6.25 5 2.799 5 6.25 5a7.64 7.64 0 001.631-.194l3.369 1.444-1.165-2.329C19.045 15.506 20 14.1 20 12.5zm-8.125-.313a.938.938 0 110-1.875.938.938 0 010 1.876zm3.75 0a.938.938 0 110-1.875.938.938 0 010 1.876z" fill="#E6212A"/></svg>