<svg version="1.1" id="Capa_1" xmlns="http://www.w3.org/2000/svg" x="0" y="0" viewBox="0 0 384.97 384.97" xml:space="preserve"><g id="Chevron_Up_Circle"><path d="M192.485 0C86.173 0 0 86.185 0 192.485 0 298.797 86.173 384.97 192.485 384.97c106.3 0 192.485-86.173 192.485-192.485C384.97 86.185 298.785 0 192.485 0zm0 360.909c-92.874 0-168.797-75.55-168.797-168.424S99.611 24.061 192.485 24.061s168.424 75.55 168.424 168.424-75.55 168.424-168.424 168.424z"/><path d="M200.894 135.858c-4.62-4.572-12.56-4.584-17.191 0l-84.2 82.997c-4.74 4.704-4.74 12.319 0 17.011 4.752 4.704 12.439 4.704 17.191 0l75.61-74.528 75.61 74.54c4.74 4.704 12.439 4.704 17.191 0 4.74-4.704 4.74-12.319 0-17.011l-84.211-83.009z"/></g></svg>