<svg width="20" height="20" fill="none" xmlns="http://www.w3.org/2000/svg"><path d="M16.253 8.339a6.47 6.47 0 00.264-1.823A6.515 6.515 0 103.748 8.34c-.82.659-4.005 3.515-2.695 7.218 0 0 1.108-.094 2.018-1.778a7.122 7.122 0 001.494 2.874c-1.029.303-1.726.89-1.726 1.565C2.84 19.202 4.325 20 6.156 20c1.243 0 2.326-.368 2.893-.91.312.04.627.069.95.069.325 0 .64-.029.951-.07.57.543 1.65.911 2.894.911 1.832 0 3.318-.798 3.318-1.782 0-.674-.699-1.262-1.727-1.565a7.131 7.131 0 001.494-2.874c.91 1.683 2.017 1.778 2.017 1.778 1.311-3.704-1.873-6.56-2.693-7.218z" fill="#E6212A"/></svg>