<svg width="92" height="79" fill="none" xmlns="http://www.w3.org/2000/svg"><circle cx="27.5" cy="27.5" r="27.5" fill="#009C4B"/><path d="M32.653 55.145h-.011c-.591 0-1.064.48-1.064 1.07 0 .59.485 1.07 1.075 1.07a1.07 1.07 0 000-2.14zm9.143 0h-.011c-.59 0-1.064.48-1.064 1.07 0 .59.485 1.07 1.075 1.07a1.07 1.07 0 000-2.14zm37.717 0h-.011c-.591 0-1.064.48-1.064 1.07 0 .59.484 1.07 1.075 1.07a1.07 1.07 0 000-2.14z" fill="#000"/><path d="M91.017 42.217l-1.437-1.438-2.897-8.69a1.07 1.07 0 00-.324-2.088H76v-4.645c0-1.22-.992-2.212-2.212-2.212H21.212c-1.22 0-2.212.993-2.212 2.212v25.145c0 1.22.992 2.212 2.212 2.212h1.217v2.359c0 1.22.992 2.212 2.212 2.212h2.462a5.65 5.65 0 005.538 4.572c1.88 0 3.547-.925 4.572-2.343a5.636 5.636 0 004.572 2.343 5.65 5.65 0 005.538-4.572h26.64a5.65 5.65 0 005.538 4.572 5.648 5.648 0 005.641-5.642l-.001-.072h4.647c1.22 0 2.212-.993 2.212-2.213v-9.34c0-.896-.349-1.738-.983-2.372zM27.103 55.145h-2.462a.074.074 0 01-.074-.073v-2.36h3.657a5.62 5.62 0 00-1.12 2.433zm5.538 4.572a3.506 3.506 0 01-3.502-3.502c0-1.924 1.56-3.49 3.48-3.502h.045a3.506 3.506 0 013.48 3.502 3.507 3.507 0 01-3.502 3.502zm9.144 0a3.506 3.506 0 01-3.502-3.502 3.506 3.506 0 013.48-3.502h.044a3.506 3.506 0 013.48 3.502 3.507 3.507 0 01-3.502 3.502zm32.179-4.572h-26.64a5.618 5.618 0 00-1.121-2.432h20.726a1.07 1.07 0 000-2.139H21.212a.073.073 0 01-.073-.073V25.356c0-.04.033-.073.073-.073h52.575c.04 0 .073.033.073.073v25.218h-2.359a1.07 1.07 0 100 2.139h3.583a5.618 5.618 0 00-1.12 2.432zM87.542 41.43h-6.898a.074.074 0 01-.073-.073V36.71h5.398l1.573 4.72zm-8.04 18.287a3.506 3.506 0 01-3.503-3.502c0-1.924 1.56-3.49 3.48-3.502h.03a3.506 3.506 0 013.495 3.502 3.507 3.507 0 01-3.502 3.502zm10.36-5.787c0 .04-.033.073-.074.073H84.69a5.65 5.65 0 00-5.188-3.43l-.022.001H76v-18.36c0-.041.032-.074.073-.074h8.373l.81 2.433h-5.754a1.07 1.07 0 00-1.07 1.069v5.715c0 1.22.993 2.212 2.212 2.212h8.7l.161.16c.23.23.357.535.357.86v2.556h-1.217a1.07 1.07 0 000 2.14h1.217v4.645z" fill="#000"/><path d="M70.358 46.003H24.641a1.07 1.07 0 000 2.139h45.717a1.07 1.07 0 100-2.14z" fill="#000"/></svg>