<svg width="92" height="72" fill="none" xmlns="http://www.w3.org/2000/svg"><circle cx="27.5" cy="27.5" r="27.5" fill="#009C4B"/><g clip-path="url(#clip0)" fill="#000"><path d="M90.49 43.793a5.284 5.284 0 00-2.78-1.351c-1.47-5.31-6.648-9.088-12.606-9.088H35.53l-4.69-11.008c-.337-.79-1.145-1.301-2.058-1.301h-7.569c-1.22 0-2.213.925-2.213 2.061v21.94c0 3.85 3.363 6.983 7.496 6.983h6.89c.592 0 1.071-.447 1.071-.998 0-.55-.48-.998-1.07-.998h-6.891c-2.952 0-5.354-2.237-5.354-4.987V31.02h11.09l1.433 3.364c.251.586.85.965 1.526.965h39.912c2.157 0 4.19.594 5.902 1.625h-4.57c-.906 0-1.643.686-1.643 1.53v4.324c0 .843.737 1.529 1.642 1.529h10.263c.044.005.09.01.135.01a3.124 3.124 0 012.14.834 2.72 2.72 0 01.887 1.998c0 1.502-1.26 2.744-2.867 2.83a1.078 1.078 0 00-.062.004H62.77v-1.729h4.678c1.76 0 3.19-1.333 3.19-2.971 0-1.638-1.43-2.971-3.19-2.971H43.551c-1.76 0-3.19 1.333-3.19 2.971 0 1.639 1.43 2.971 3.19 2.971h4.537a4.116 4.116 0 00-.688 1.73h-9.016c-.592 0-1.071.446-1.071.997 0 .55.48.997 1.07.997h9.22c.626 1.7 2.357 2.927 4.391 2.927h9.135c.906 0 1.642-.686 1.642-1.53v-1.397h24.282c.067 0 .133-.005.197-.017C89.924 51.804 92 49.715 92 47.2c0-1.286-.536-2.495-1.51-3.406zM21.213 23.04h7.569c.03 0 .056.017.067.042l.832 1.953h-8.54v-1.928c0-.037.033-.067.072-.067zm-.071 5.985V27.03h9.39l.85 1.995h-10.24zm55.792 9.944h6.5a9.897 9.897 0 012.019 3.393h-8.519V38.97zm-34.431 6.364c0-.538.47-.976 1.048-.976h23.898c.578 0 1.048.438 1.048.976 0 .539-.47.977-1.048.977H43.551c-.578 0-1.048-.438-1.048-.977zm6.993 5.3c0-1.284 1.12-2.328 2.498-2.328h4.984v4.655h-4.984c-1.377 0-2.498-1.044-2.498-2.328zm11.133 2.327h-1.51v-4.655h1.51v4.655z"/><path d="M71.936 39.302v-1.33c0-.551-.48-.998-1.07-.998-.592 0-1.071.447-1.071.998v1.33c0 .55.48.997 1.07.997.592 0 1.071-.447 1.071-.997zm-24.986 0v-1.33c0-.551-.48-.998-1.07-.998-.592 0-1.072.447-1.072.998v1.33c0 .55.48.997 1.071.997.592 0 1.071-.447 1.071-.997zm19.989 0v-1.33c0-.551-.48-.998-1.07-.998-.592 0-1.072.447-1.072.998v1.33c0 .55.48.997 1.071.997.592 0 1.071-.447 1.071-.997zm-24.986 0v-1.33c0-.551-.48-.998-1.071-.998s-1.071.447-1.071.998v1.33c0 .55.48.997 1.07.997.592 0 1.072-.447 1.072-.997zm19.989 0v-1.33c0-.551-.48-.998-1.071-.998-.592 0-1.071.447-1.071.998v1.33c0 .55.48.997 1.07.997.592 0 1.072-.447 1.072-.997zm-26.057-2.328c-.592 0-1.071.447-1.071.998v1.33c0 .55.48.997 1.07.997.592 0 1.072-.447 1.072-.997v-1.33c0-.551-.48-.998-1.071-.998zm21.059 2.328v-1.33c0-.551-.479-.998-1.07-.998-.592 0-1.071.447-1.071.998v1.33c0 .55.48.997 1.07.997.592 0 1.072-.447 1.072-.997zm-4.997 0v-1.33c0-.551-.48-.998-1.07-.998-.592 0-1.072.447-1.072.998v1.33c0 .55.48.997 1.071.997.592 0 1.071-.447 1.071-.997zM24.783 43.25h3.627c.592 0 1.071-.446 1.071-.997 0-.551-.48-.998-1.07-.998h-3.628c-.592 0-1.071.447-1.071.998 0 .55.48.997 1.07.997zm0 4.39h7.255c.592 0 1.071-.447 1.071-.998 0-.55-.48-.998-1.07-.998h-7.256c-.592 0-1.071.447-1.071.998 0 .55.48.997 1.07.997z"/></g><defs><clipPath id="clip0"><path fill="#fff" transform="translate(19 4)" d="M0 0h73v68H0z"/></clipPath></defs></svg>