<svg width="86" height="70" fill="none" xmlns="http://www.w3.org/2000/svg"><circle cx="27.5" cy="27.5" r="27.5" fill="#009C4B"/><g clip-path="url(#clip0)" fill="#000"><path d="M78.928 53.473c-.227-.409-.778-.574-1.23-.369-.453.205-.636.703-.409 1.112l1.689 3.038c.16.29.484.457.82.457a.994.994 0 00.41-.088c.453-.205.636-.703.408-1.111l-1.688-3.04z"/><path d="M85.343 58.29l-3.76-6.675c-.526-.934-1.262-1.44-2.38-1.606v-1.876h1.091c1.615 0 2.928-1.187 2.928-2.645v-5.885c0-1.456-1.313-2.642-2.927-2.642h-1.091v-1.038c0-1.291-1.164-2.341-2.595-2.341h-1.691V27.57h.857c1.456 0 2.64-1.07 2.64-2.384v-1.56c0-1.315-1.184-2.384-2.64-2.384H64.166c-1.455 0-2.639 1.07-2.639 2.384v1.56c0 1.314 1.184 2.384 2.64 2.384h.857v6.012H60.57v-2.223c0-1.168-1.052-2.118-2.344-2.118h-1.692c-1.295 0-2.348.95-2.348 2.118v2.223h-5.3v-7.503c1.637-.308 2.872-1.622 2.872-3.19 0-1.796-1.618-3.257-3.607-3.257h-19.45c-1.99 0-3.607 1.46-3.607 3.256 0 1.57 1.236 2.885 2.875 3.191v23.867h-1.92c-1.13 0-2.05.83-2.05 1.852v3.236c0 1.021.92 1.852 2.05 1.852h2.875c.462 4.194 4.388 7.481 9.148 7.481 4.762 0 8.69-3.287 9.151-7.481h6.041c.462 4.194 4.39 7.481 9.151 7.481 4.76 0 8.687-3.287 9.148-7.481h1.321c.273 0 .553-.001.7.01.052.079.126.207.193.323.079.136.17.294.283.479l.01.017.716 1.108c.86 1.403 1.978 1.522 3.16 1.648.258.027.524.055.814.097l4.618.667c.329.047.69.1 1.04.1.512 0 .998-.112 1.322-.514.505-.624.222-1.431-.397-2.531zm-6.14-19.673h1.091c.604 0 1.095.443 1.095.986v5.885c0 .545-.491.989-1.094.989h-1.091v-7.86zM64.167 25.914c-.444 0-.805-.327-.805-.729v-1.559c0-.402.361-.728.805-.728h11.61c.444 0 .805.326.805.728v1.56c0 .401-.361.728-.806.728h-11.61zm8.918 1.656v6.012h-6.227V27.57h6.227zm-17.063 3.789c0-.25.235-.462.514-.462h1.691c.282 0 .511.207.511.462v2.223h-2.716v-2.223zm-29.093-8.47c0-.883.796-1.6 1.774-1.6h19.45c.977 0 1.773.717 1.773 1.6 0 .883-.795 1.602-1.773 1.602H28.702c-.978 0-1.774-.72-1.774-1.603zm11.76 21.697h.003l8.362-.028v5.388h-17.25v-5.391h5.343c.506 0 .917-.37.917-.828 0-.458-.41-.828-.917-.828h-5.342V26.147h17.249v16.755l-8.369.028c-.506.001-.915.373-.913.83.002.457.412.826.916.826zm-.615 18.125c-3.748 0-6.85-2.546-7.303-5.825h2.333c.432 2.126 2.496 3.742 4.97 3.742 2.477 0 4.541-1.616 4.974-3.742h2.333c-.453 3.28-3.557 5.825-7.307 5.825zm-3.09-5.825h6.183c-.396 1.205-1.633 2.086-3.093 2.086-1.458 0-2.694-.881-3.09-2.086zm27.433 5.825c-3.75 0-6.854-2.546-7.306-5.825h2.333c.432 2.126 2.497 3.742 4.973 3.742 2.475 0 4.538-1.616 4.97-3.742h2.334c-.453 3.28-3.555 5.825-7.304 5.825zm-3.092-5.825h6.182c-.396 1.205-1.631 2.086-3.09 2.086-1.46 0-2.696-.881-3.092-2.086zm24.344 2.713l-4.619-.666c-.327-.047-.625-.08-.888-.107-1.08-.115-1.37-.146-1.775-.811l-.011-.018-.715-1.108a19.624 19.624 0 01-.257-.435c-.642-1.111-1.022-1.224-2.482-1.224H26.049c-.117 0-.216-.09-.216-.195v-3.237c0-.106.1-.196.216-.196h30.887c.506 0 .917-.37.917-.828 0-.457-.41-.828-.917-.828h-8.05V35.238H76.61c.413 0 .761.313.761.685v14.023H61.126c-.506 0-.917.371-.917.829 0 .457.41.828.917.828h17.161c1.149 0 1.394.288 1.66.762l3.761 6.676c.146.258.245.456.312.606-.103-.013-.22-.028-.352-.047z"/><path d="M63.127 40.561h7.593c.507 0 .917-.37.917-.828 0-.457-.41-.828-.916-.828h-7.594c-.507 0-.917.371-.917.828 0 .458.41.828.917.828zm0 4.537h7.593c.507 0 .917-.371.917-.828 0-.458-.41-.829-.916-.829h-7.594c-.507 0-.917.371-.917.828 0 .458.41.829.917.829zM44.824 36.81v-7.392c0-1.041-.938-1.889-2.09-1.889h-8.8c-1.152 0-2.09.847-2.09 1.889v7.391c0 1.042.938 1.889 2.09 1.889h8.8c1.152 0 2.09-.847 2.09-1.889zm-11.146 0v-7.392c0-.126.117-.232.257-.232h8.798c.14 0 .257.106.257.232v7.391c0 .126-.118.233-.257.233h-8.798c-.14 0-.257-.107-.257-.233z"/></g><defs><clipPath id="clip0"><path fill="#fff" transform="translate(24 14)" d="M0 0h62v56H0z"/></clipPath></defs></svg>