<svg width="85" height="70" fill="none" xmlns="http://www.w3.org/2000/svg"><circle cx="27.5" cy="27.5" r="27.5" fill="#009C4B"/><g clip-path="url(#clip0)"><path d="M84.718 40.155c-.332-.483-.9-.771-1.52-.771h-8.172c-1.457 0-2.642 1.095-2.642 2.442a.604.604 0 01-.006.078v-5.758c0-.828-.728-1.501-1.624-1.501h-7.076v-6.69c0-.637-.56-1.156-1.25-1.156H45.593c-.69 0-1.25.519-1.25 1.156v14.523h-2.995v-5.283c.702-.002 1.273-.53 1.273-1.18v-2.187c0-.65-.572-1.18-1.276-1.18h-2.88V26.07c0-.737-.648-1.337-1.446-1.337h-4.154v-4.395c0-.5-.439-.905-.98-.905-.54 0-.978.405-.978.905v4.396h-4.155c-.797 0-1.445.599-1.445 1.336v6.579h-2.88c-.704 0-1.277.529-1.277 1.18v2.186c0 .65.571 1.178 1.274 1.18v5.283h-1.748c-.507 0-.982.209-1.302.573-.32.364-.442.836-.337 1.294.703 3.077 2.407 6.078 4.926 8.678a.96.96 0 01.27.623l.002.016a.938.938 0 01-.007.134c0 .009 0 .017-.002.026a.921.921 0 01-.028.122c-.003.01-.004.021-.008.032a.958.958 0 01-.06.146l-1.58 3.058a1.55 1.55 0 00.101 1.609c.333.487.904.778 1.527.778h50.453c.695 0 1.334-.375 1.63-.956l8.567-16.856a1.548 1.548 0 00-.11-1.6zm-21.04-3.72h6.763v6.043h-6.763v-6.043zm-8.7-7.846h6.764v6.056h-6.763v-6.056zm0 7.846h6.764v6.043h-6.763v-6.043zM46.28 28.59h6.763v6.056H46.28V28.59zm0 7.846h6.763v6.043H46.28v-6.043zm-19.036-9.912h9.286v6.126h-9.286v-6.126zm-4.156 7.915h17.598v.967H29.733c-.535 0-.969.4-.969.895 0 .494.434.895.969.895h9.678v5.283h-15.05v-5.283h.818c.535 0 .968-.4.968-.895 0-.494-.433-.895-.968-.895h-2.092v-.967zm54.174 17.995h-9.6c-.534 0-.968.4-.968.895 0 .494.434.895.969.895h8.69l-1.808 3.554H24.388l1.49-2.883c.031-.06.059-.12.085-.181l.023-.058c.016-.041.033-.083.047-.126l.023-.07a2.448 2.448 0 00.053-.197l.01-.04h36.99c.535 0 .968-.4.968-.894 0-.495-.433-.895-.968-.895H25.85a2.788 2.788 0 00-.444-.604c-2.246-2.318-3.726-4.86-4.404-7.561l50.407.013c.055 0 .217-.005.269-.013 1.457 0 2.642-1.096 2.642-2.442 0-.36.317-.652.706-.652h7.958L77.26 52.433z" fill="#000"/></g><defs><clipPath id="clip0"><path fill="#fff" transform="translate(19 9)" d="M0 0h66v61H0z"/></clipPath></defs></svg>