<svg viewBox="0 0 512 512" xmlns="http://www.w3.org/2000/svg" xmlns:xlink="http://www.w3.org/1999/xlink"><style>:root&gt;svg{display:none}:root&gt;svg:target{display:block}</style><svg viewBox="0 0 512.001 512.001" id="american" xmlns="http://www.w3.org/2000/svg"><path d="M503.172 423.725H8.828A8.829 8.829 0 010 414.897V97.104a8.829 8.829 0 018.828-8.828h494.345a8.829 8.829 0 018.828 8.828v317.793a8.83 8.83 0 01-8.829 8.828z" fill="#f5f5f5"/><path d="M512 114.081H0V97.104a8.829 8.829 0 018.828-8.828h494.345a8.829 8.829 0 018.828 8.828L512 114.081zM0 191.491h512v25.804H0zm0-51.61h512v25.804H0zm512 129.022H8.828A8.829 8.829 0 010 260.075v-16.977h512v25.805zM0 346.321h512v25.804H0zm503.172 77.404H8.828A8.829 8.829 0 010 414.897v-16.976h512v16.977a8.828 8.828 0 01-8.828 8.827zM0 294.711h512v25.804H0z" fill="#ff4b55"/><path d="M229.517 88.277H8.828A8.828 8.828 0 000 97.104v162.97a8.829 8.829 0 008.828 8.828h220.69a8.829 8.829 0 008.828-8.828V97.104a8.83 8.83 0 00-8.829-8.827z" fill="#41479b"/><path d="M24.789 108.538l1.954 5.86 6.177.047c.8.007 1.131 1.027.488 1.502l-4.969 3.67 1.864 5.889c.242.762-.627 1.394-1.278.928L24 122.843l-5.025 3.592c-.651.465-1.518-.166-1.278-.928l1.864-5.889-4.969-3.67c-.643-.476-.312-1.495.488-1.502l6.177-.047 1.954-5.86c.252-.76 1.324-.76 1.578-.001zm0 30.654l1.954 5.86 6.177.047c.8.007 1.131 1.027.488 1.502l-4.969 3.67 1.864 5.889c.242.762-.627 1.394-1.278.928L24 153.497l-5.025 3.592c-.651.465-1.518-.166-1.278-.928l1.864-5.889-4.969-3.67c-.643-.476-.312-1.495.488-1.502l6.177-.047 1.954-5.86c.252-.759 1.324-.759 1.578-.001zm0 30.654l1.954 5.86 6.177.047c.8.007 1.131 1.027.488 1.502l-4.969 3.67 1.864 5.889c.242.762-.627 1.394-1.278.928L24 184.151l-5.025 3.592c-.651.465-1.518-.166-1.278-.928l1.864-5.889-4.969-3.67c-.643-.476-.312-1.495.488-1.502l6.177-.047 1.954-5.86c.252-.759 1.324-.759 1.578-.001zm0 30.655l1.954 5.86 6.177.047c.8.007 1.131 1.027.488 1.502l-4.969 3.67 1.864 5.889c.242.762-.627 1.394-1.278.928L24 214.806l-5.025 3.592c-.651.465-1.518-.166-1.278-.928l1.864-5.889-4.969-3.67c-.643-.476-.312-1.495.488-1.502l6.177-.047 1.954-5.86c.252-.76 1.324-.76 1.578-.001zm0 30.654l1.954 5.86 6.177.047c.8.007 1.131 1.027.488 1.502l-4.969 3.67 1.864 5.889c.242.762-.627 1.394-1.278.928L24 245.46l-5.025 3.592c-.651.465-1.518-.166-1.278-.928l1.864-5.889-4.969-3.67c-.643-.476-.312-1.495.488-1.502l6.177-.047 1.954-5.86c.252-.761 1.324-.761 1.578-.001zm23.793-107.588l1.954 5.86 6.177.047c.8.007 1.131 1.027.488 1.502l-4.969 3.67 1.864 5.889c.242.762-.627 1.394-1.278.928l-5.025-3.592-5.025 3.592c-.651.465-1.518-.166-1.278-.928l1.864-5.889-4.969-3.67c-.643-.476-.312-1.495.488-1.502l6.177-.047 1.954-5.86c.251-.758 1.325-.758 1.578 0zm0 30.655l1.954 5.86 6.177.047c.8.007 1.131 1.027.488 1.502l-4.969 3.67 1.864 5.889c.242.762-.627 1.394-1.278.928l-5.025-3.592-5.025 3.592c-.651.465-1.518-.165-1.278-.928l1.864-5.889-4.969-3.67c-.643-.476-.312-1.495.488-1.502l6.177-.047 1.954-5.86c.251-.759 1.325-.759 1.578 0zm0 30.654l1.954 5.86 6.177.047c.8.007 1.131 1.027.488 1.502l-4.969 3.67 1.864 5.889c.242.762-.627 1.394-1.278.928l-5.025-3.592-5.025 3.592c-.651.465-1.518-.166-1.278-.928l1.864-5.889-4.969-3.67c-.643-.476-.312-1.495.488-1.502l6.177-.047 1.954-5.86c.251-.759 1.325-.759 1.578 0zm0 30.654l1.954 5.86 6.177.047c.8.007 1.131 1.027.488 1.502l-4.969 3.67 1.864 5.889c.242.762-.627 1.394-1.278.928l-5.025-3.592-5.025 3.592c-.651.465-1.518-.166-1.278-.928l1.864-5.889-4.969-3.67c-.643-.476-.312-1.495.488-1.502l6.177-.047 1.954-5.86c.251-.758 1.325-.758 1.578 0zm23.793-106.992l1.954 5.86 6.177.047c.8.007 1.131 1.027.488 1.502l-4.969 3.67 1.864 5.889c.242.762-.627 1.394-1.278.928l-5.025-3.592-5.025 3.592c-.651.465-1.518-.166-1.278-.928l1.864-5.889-4.969-3.67c-.643-.476-.312-1.495.488-1.502l6.177-.047 1.954-5.86c.252-.759 1.325-.759 1.578 0zm0 30.654l1.954 5.86 6.177.047c.8.007 1.131 1.027.488 1.502l-4.969 3.67 1.864 5.889c.242.762-.627 1.394-1.278.928l-5.025-3.592-5.025 3.592c-.651.465-1.518-.166-1.278-.928l1.864-5.889-4.969-3.67c-.643-.476-.312-1.495.488-1.502l6.177-.047 1.954-5.86c.252-.758 1.325-.758 1.578 0zm0 30.654l1.954 5.86 6.177.047c.8.007 1.131 1.027.488 1.502l-4.969 3.67 1.864 5.889c.242.762-.627 1.394-1.278.928l-5.025-3.592-5.025 3.592c-.651.465-1.518-.166-1.278-.928l1.864-5.889-4.969-3.67c-.643-.476-.312-1.495.488-1.502l6.177-.047 1.954-5.86c.252-.758 1.325-.758 1.578 0zm0 30.655l1.954 5.86 6.177.047c.8.007 1.131 1.027.488 1.502l-4.969 3.67 1.864 5.889c.242.762-.627 1.394-1.278.928l-5.025-3.592-5.025 3.592c-.651.465-1.518-.166-1.278-.928l1.864-5.889-4.969-3.67c-.643-.476-.312-1.495.488-1.502l6.177-.047 1.954-5.86c.252-.759 1.325-.759 1.578 0zm0 30.654l1.954 5.86 6.177.047c.8.007 1.131 1.027.488 1.502l-4.969 3.67 1.864 5.889c.242.762-.627 1.394-1.278.928l-5.025-3.592-5.025 3.592c-.651.465-1.518-.166-1.278-.928l1.864-5.889-4.969-3.67c-.643-.476-.312-1.495.488-1.502l6.177-.047 1.954-5.86c.252-.76 1.325-.76 1.578 0zm23.794-107.588l1.954 5.86 6.177.047c.8.007 1.131 1.027.488 1.502l-4.969 3.67 1.864 5.889c.242.762-.627 1.394-1.278.928l-5.025-3.592-5.025 3.592c-.651.465-1.518-.166-1.278-.928l1.864-5.889-4.969-3.67c-.643-.476-.312-1.495.488-1.502l6.177-.047 1.954-5.86c.251-.758 1.325-.758 1.578 0zm0 30.655l1.954 5.86 6.177.047c.8.007 1.131 1.027.488 1.502l-4.969 3.67 1.864 5.889c.242.762-.627 1.394-1.278.928l-5.025-3.592-5.025 3.592c-.651.465-1.518-.165-1.278-.928l1.864-5.889-4.969-3.67c-.643-.476-.312-1.495.488-1.502l6.177-.047 1.954-5.86c.251-.759 1.325-.759 1.578 0zm0 30.654l1.954 5.86 6.177.047c.8.007 1.131 1.027.488 1.502l-4.969 3.67 1.864 5.889c.242.762-.627 1.394-1.278.928l-5.025-3.592-5.025 3.592c-.651.465-1.518-.166-1.278-.928l1.864-5.889-4.969-3.67c-.643-.476-.312-1.495.488-1.502l6.177-.047 1.954-5.86c.251-.759 1.325-.759 1.578 0zm0 30.654l1.954 5.86 6.177.047c.8.007 1.131 1.027.488 1.502l-4.969 3.67 1.864 5.889c.242.762-.627 1.394-1.278.928l-5.025-3.592-5.025 3.592c-.651.465-1.518-.166-1.278-.928l1.864-5.889-4.969-3.67c-.643-.476-.312-1.495.488-1.502l6.177-.047 1.954-5.86c.251-.758 1.325-.758 1.578 0zm23.793-106.992l1.954 5.86 6.177.047c.8.007 1.131 1.027.488 1.502l-4.969 3.67 1.864 5.889c.242.762-.627 1.394-1.278.928l-5.026-3.592-5.025 3.592c-.651.465-1.518-.166-1.278-.928l1.864-5.889-4.969-3.67c-.643-.476-.312-1.495.488-1.502l6.177-.047 1.954-5.86c.253-.759 1.326-.759 1.579 0zm0 30.654l1.954 5.86 6.177.047c.8.007 1.131 1.027.488 1.502l-4.969 3.67 1.864 5.889c.242.762-.627 1.394-1.278.928l-5.026-3.592-5.025 3.592c-.651.465-1.518-.166-1.278-.928l1.864-5.889-4.969-3.67c-.643-.476-.312-1.495.488-1.502l6.177-.047 1.954-5.86c.253-.758 1.326-.758 1.579 0zm0 30.654l1.954 5.86 6.177.047c.8.007 1.131 1.027.488 1.502l-4.969 3.67 1.864 5.889c.242.762-.627 1.394-1.278.928l-5.026-3.592-5.025 3.592c-.651.465-1.518-.166-1.278-.928l1.864-5.889-4.969-3.67c-.643-.476-.312-1.495.488-1.502l6.177-.047 1.954-5.86c.253-.758 1.326-.758 1.579 0zm0 30.655l1.954 5.86 6.177.047c.8.007 1.131 1.027.488 1.502l-4.969 3.67 1.864 5.889c.242.762-.627 1.394-1.278.928l-5.026-3.592-5.025 3.592c-.651.465-1.518-.166-1.278-.928l1.864-5.889-4.969-3.67c-.643-.476-.312-1.495.488-1.502l6.177-.047 1.954-5.86c.253-.759 1.326-.759 1.579 0zm0 30.654l1.954 5.86 6.177.047c.8.007 1.131 1.027.488 1.502l-4.969 3.67 1.864 5.889c.242.762-.627 1.394-1.278.928l-5.026-3.592-5.025 3.592c-.651.465-1.518-.166-1.278-.928l1.864-5.889-4.969-3.67c-.643-.476-.312-1.495.488-1.502l6.177-.047 1.954-5.86c.253-.76 1.326-.76 1.579 0zm23.793-107.588l1.954 5.86 6.177.047c.8.007 1.131 1.027.488 1.502l-4.969 3.67 1.864 5.889c.242.762-.627 1.394-1.278.928l-5.025-3.592-5.025 3.592c-.651.465-1.518-.166-1.278-.928l1.864-5.889-4.969-3.67c-.643-.476-.312-1.495.488-1.502l6.177-.047 1.954-5.86c.253-.758 1.325-.758 1.578 0zm0 30.655l1.954 5.86 6.177.047c.8.007 1.131 1.027.488 1.502l-4.969 3.67 1.864 5.889c.242.762-.627 1.394-1.278.928l-5.025-3.592-5.025 3.592c-.651.465-1.518-.165-1.278-.928l1.864-5.889-4.969-3.67c-.643-.476-.312-1.495.488-1.502l6.177-.047 1.954-5.86c.253-.759 1.325-.759 1.578 0zm0 30.654l1.954 5.86 6.177.047c.8.007 1.131 1.027.488 1.502l-4.969 3.67 1.864 5.889c.242.762-.627 1.394-1.278.928l-5.025-3.592-5.025 3.592c-.651.465-1.518-.166-1.278-.928l1.864-5.889-4.969-3.67c-.643-.476-.312-1.495.488-1.502l6.177-.047 1.954-5.86c.253-.759 1.325-.759 1.578 0zm0 30.654l1.954 5.86 6.177.047c.8.007 1.131 1.027.488 1.502l-4.969 3.67 1.864 5.889c.242.762-.627 1.394-1.278.928l-5.025-3.592-5.025 3.592c-.651.465-1.518-.166-1.278-.928l1.864-5.889-4.969-3.67c-.643-.476-.312-1.495.488-1.502l6.177-.047 1.954-5.86c.253-.758 1.325-.758 1.578 0zm23.794-106.992l1.954 5.86 6.177.047c.8.007 1.131 1.027.488 1.502l-4.969 3.67 1.864 5.889c.242.762-.627 1.394-1.278.928l-5.025-3.592-5.025 3.592c-.651.465-1.518-.166-1.278-.928l1.864-5.889-4.969-3.67c-.643-.476-.312-1.495.488-1.502l6.177-.047 1.954-5.86c.251-.759 1.325-.759 1.578 0zm0 30.654l1.954 5.86 6.177.047c.8.007 1.131 1.027.488 1.502l-4.969 3.67 1.864 5.889c.242.762-.627 1.394-1.278.928l-5.025-3.592-5.025 3.592c-.651.465-1.518-.166-1.278-.928l1.864-5.889-4.969-3.67c-.643-.476-.312-1.495.488-1.502l6.177-.047 1.954-5.86c.251-.758 1.325-.758 1.578 0zm0 30.654l1.954 5.86 6.177.047c.8.007 1.131 1.027.488 1.502l-4.969 3.67 1.864 5.889c.242.762-.627 1.394-1.278.928l-5.025-3.592-5.025 3.592c-.651.465-1.518-.166-1.278-.928l1.864-5.889-4.969-3.67c-.643-.476-.312-1.495.488-1.502l6.177-.047 1.954-5.86c.251-.758 1.325-.758 1.578 0zm0 30.655l1.954 5.86 6.177.047c.8.007 1.131 1.027.488 1.502l-4.969 3.67 1.864 5.889c.242.762-.627 1.394-1.278.928l-5.025-3.592-5.025 3.592c-.651.465-1.518-.166-1.278-.928l1.864-5.889-4.969-3.67c-.643-.476-.312-1.495.488-1.502l6.177-.047 1.954-5.86c.251-.759 1.325-.759 1.578 0zm0 30.654l1.954 5.86 6.177.047c.8.007 1.131 1.027.488 1.502l-4.969 3.67 1.864 5.889c.242.762-.627 1.394-1.278.928l-5.025-3.592-5.025 3.592c-.651.465-1.518-.166-1.278-.928l1.864-5.889-4.969-3.67c-.643-.476-.312-1.495.488-1.502l6.177-.047 1.954-5.86c.251-.76 1.325-.76 1.578 0zm23.793-107.588l1.954 5.86 6.177.047c.8.007 1.131 1.027.488 1.502l-4.969 3.67 1.864 5.889c.242.762-.627 1.394-1.278.928l-5.025-3.592-5.025 3.592c-.651.465-1.518-.166-1.278-.928l1.864-5.889-4.969-3.67c-.643-.476-.312-1.495.488-1.502l6.177-.047 1.954-5.86c.252-.758 1.326-.758 1.578 0zm0 30.655l1.954 5.86 6.177.047c.8.007 1.131 1.027.488 1.502l-4.969 3.67 1.864 5.889c.242.762-.627 1.394-1.278.928l-5.025-3.592-5.025 3.592c-.651.465-1.518-.165-1.278-.928l1.864-5.889-4.969-3.67c-.643-.476-.312-1.495.488-1.502l6.177-.047 1.954-5.86c.252-.759 1.326-.759 1.578 0zm0 30.654l1.954 5.86 6.177.047c.8.007 1.131 1.027.488 1.502l-4.969 3.67 1.864 5.889c.242.762-.627 1.394-1.278.928l-5.025-3.592-5.025 3.592c-.651.465-1.518-.166-1.278-.928l1.864-5.889-4.969-3.67c-.643-.476-.312-1.495.488-1.502l6.177-.047 1.954-5.86c.252-.759 1.326-.759 1.578 0zm0 30.654l1.954 5.86 6.177.047c.8.007 1.131 1.027.488 1.502l-4.969 3.67 1.864 5.889c.242.762-.627 1.394-1.278.928l-5.025-3.592-5.025 3.592c-.651.465-1.518-.166-1.278-.928l1.864-5.889-4.969-3.67c-.643-.476-.312-1.495.488-1.502l6.177-.047 1.954-5.86c.252-.758 1.326-.758 1.578 0zm23.794-106.992l1.954 5.86 6.177.047c.8.007 1.131 1.027.488 1.502l-4.969 3.67 1.864 5.889c.242.762-.627 1.394-1.278.928l-5.025-3.592-5.025 3.592c-.651.465-1.518-.166-1.278-.928l1.864-5.889-4.969-3.67c-.643-.476-.312-1.495.488-1.502l6.177-.047 1.954-5.86c.252-.759 1.324-.759 1.578 0zm0 30.654l1.954 5.86 6.177.047c.8.007 1.131 1.027.488 1.502l-4.969 3.67 1.864 5.889c.242.762-.627 1.394-1.278.928l-5.025-3.592-5.025 3.592c-.651.465-1.518-.166-1.278-.928l1.864-5.889-4.969-3.67c-.643-.476-.312-1.495.488-1.502l6.177-.047 1.954-5.86c.252-.758 1.324-.758 1.578 0zm0 30.654l1.954 5.86 6.177.047c.8.007 1.131 1.027.488 1.502l-4.969 3.67 1.864 5.889c.242.762-.627 1.394-1.278.928l-5.025-3.592-5.025 3.592c-.651.465-1.518-.166-1.278-.928l1.864-5.889-4.969-3.67c-.643-.476-.312-1.495.488-1.502l6.177-.047 1.954-5.86c.252-.758 1.324-.758 1.578 0zm0 30.655l1.954 5.86 6.177.047c.8.007 1.131 1.027.488 1.502l-4.969 3.67 1.864 5.889c.242.762-.627 1.394-1.278.928l-5.025-3.592-5.025 3.592c-.651.465-1.518-.166-1.278-.928l1.864-5.889-4.969-3.67c-.643-.476-.312-1.495.488-1.502l6.177-.047 1.954-5.86c.252-.759 1.324-.759 1.578 0zm0 30.654l1.954 5.86 6.177.047c.8.007 1.131 1.027.488 1.502l-4.969 3.67 1.864 5.889c.242.762-.627 1.394-1.278.928l-5.025-3.592-5.025 3.592c-.651.465-1.518-.166-1.278-.928l1.864-5.889-4.969-3.67c-.643-.476-.312-1.495.488-1.502l6.177-.047 1.954-5.86c.252-.76 1.324-.76 1.578 0z" fill="#f5f5f5"/></svg><svg fill="none" viewBox="0 0 29 23" id="apostrophe" xmlns="http://www.w3.org/2000/svg"><path d="M9.698 10.688L12.514.512H6.18L2.465 9.728c-1.472 3.52-1.728 4.736-1.728 6.4 0 3.648 2.624 6.144 6.209 6.144 3.52 0 6.144-2.432 6.144-6.144 0-2.624-1.28-4.544-3.393-5.44zm15.104 0L27.62.512h-6.337L17.57 9.728c-1.471 3.52-1.728 4.736-1.728 6.4 0 3.648 2.624 6.144 6.208 6.144 3.52 0 6.145-2.432 6.145-6.144 0-2.624-1.28-4.544-3.393-5.44z" fill="#009C4B"/></svg><svg fill="none" viewBox="0 0 20 20" id="email" xmlns="http://www.w3.org/2000/svg"><g clip-path="url(#cclip0)" fill="#E6212A"><path d="M13.258 10.103L20 14.365V5.66l-6.742 4.443zM0 5.66v8.705l6.742-4.262L0 5.66zm18.75-2.535H1.25c-.624 0-1.119.465-1.212 1.064L10 10.752l9.962-6.563c-.093-.599-.588-1.064-1.212-1.064zm-6.637 7.733l-1.77 1.165a.625.625 0 01-.687 0l-1.769-1.167L.04 15.82c.096.594.589 1.055 1.21 1.055h17.5c.621 0 1.114-.461 1.21-1.055l-7.848-4.962z"/></g><defs><clipPath id="cclip0"><path fill="#fff" d="M0 0h20v20H0z"/></clipPath></defs></svg><svg fill="none" viewBox="0 0 20 20" id="map" xmlns="http://www.w3.org/2000/svg"><g clip-path="url(#dclip0)"><path d="M15.933 2.46a8.386 8.386 0 00-11.866 0 8.386 8.386 0 000 11.866l5.49 5.49a.627.627 0 00.886 0l5.49-5.49a8.386 8.386 0 000-11.866zm-3.28 8.585a3.75 3.75 0 01-5.305 0 3.749 3.749 0 010-5.304 3.75 3.75 0 015.304 0 3.75 3.75 0 010 5.304z" fill="#E6212A"/></g><defs><clipPath id="dclip0"><path fill="#fff" d="M0 0h20v20H0z"/></clipPath></defs></svg><svg fill="none" viewBox="0 0 20 20" id="message" xmlns="http://www.w3.org/2000/svg"><path d="M7.5 1.25C3.357 1.25 0 4.049 0 7.5c0 1.99 1.123 3.755 2.864 4.898l-.989 1.977 2.694-1.154a8.512 8.512 0 001.819.453A5.233 5.233 0 016.25 12.5c0-3.446 3.364-6.25 7.5-6.25.379 0 .749.031 1.114.076-.66-2.89-3.704-5.076-7.364-5.076zM5 5.938a.938.938 0 110-1.876.938.938 0 010 1.875zm5 0a.938.938 0 110-1.876.938.938 0 010 1.875z" fill="#E6212A"/><path d="M20 12.5c0-2.761-2.799-5-6.25-5s-6.25 2.239-6.25 5 2.799 5 6.25 5a7.64 7.64 0 001.631-.194l3.369 1.444-1.165-2.329C19.045 15.506 20 14.1 20 12.5zm-8.125-.313a.938.938 0 110-1.875.938.938 0 010 1.876zm3.75 0a.938.938 0 110-1.875.938.938 0 010 1.876z" fill="#E6212A"/></svg><svg viewBox="0 0 384.97 384.97" id="pageup" xmlns="http://www.w3.org/2000/svg"><path d="M192.485 0C86.173 0 0 86.185 0 192.485 0 298.797 86.173 384.97 192.485 384.97c106.3 0 192.485-86.173 192.485-192.485C384.97 86.185 298.785 0 192.485 0zm0 360.909c-92.874 0-168.797-75.55-168.797-168.424S99.611 24.061 192.485 24.061s168.424 75.55 168.424 168.424-75.55 168.424-168.424 168.424z"/><path d="M200.894 135.858c-4.62-4.572-12.56-4.584-17.191 0l-84.2 82.997c-4.74 4.704-4.74 12.319 0 17.011 4.752 4.704 12.439 4.704 17.191 0l75.61-74.528 75.61 74.54c4.74 4.704 12.439 4.704 17.191 0 4.74-4.704 4.74-12.319 0-17.011l-84.211-83.009z"/></svg><svg fill="none" viewBox="0 0 20 20" id="phone" xmlns="http://www.w3.org/2000/svg"><path d="M19.456 14.678l-2.791-2.791c-.997-.997-2.692-.598-3.09.698-.3.897-1.296 1.395-2.193 1.196-1.994-.498-4.685-3.09-5.184-5.184-.299-.897.3-1.894 1.196-2.193 1.296-.398 1.695-2.093.698-3.09L5.301.524c-.797-.698-1.994-.698-2.691 0L.716 2.416C-1.178 4.411.915 9.694 5.6 14.38c4.685 4.685 9.968 6.878 11.962 4.884l1.894-1.894c.698-.797.698-1.993 0-2.691z" fill="#E6212A"/></svg><svg fill="none" viewBox="0 0 20 20" id="pinguin" xmlns="http://www.w3.org/2000/svg"><path d="M16.253 8.339a6.47 6.47 0 00.264-1.823A6.515 6.515 0 103.748 8.34c-.82.659-4.005 3.515-2.695 7.218 0 0 1.108-.094 2.018-1.778a7.122 7.122 0 001.494 2.874c-1.029.303-1.726.89-1.726 1.565C2.84 19.202 4.325 20 6.156 20c1.243 0 2.326-.368 2.893-.91.312.04.627.069.95.069.325 0 .64-.029.951-.07.57.543 1.65.911 2.894.911 1.832 0 3.318-.798 3.318-1.782 0-.674-.699-1.262-1.727-1.565a7.131 7.131 0 001.494-2.874c.91 1.683 2.017 1.778 2.017 1.778 1.311-3.704-1.873-6.56-2.693-7.218z" fill="#E6212A"/></svg><svg viewBox="0 0 26 26" id="plus" xmlns="http://www.w3.org/2000/svg"><path d="M13 0C5.832 0 0 5.832 0 13c0 7.169 5.832 13 13 13 7.169 0 13-5.831 13-13 0-7.168-5.831-13-13-13zm5.688 14.083h-4.605v4.604a1.084 1.084 0 01-2.166 0v-4.604H7.313a1.084 1.084 0 010-2.166h4.604V7.313a1.084 1.084 0 012.166 0v4.604h4.604a1.084 1.084 0 010 2.166z"/></svg><svg viewBox="0 0 512 512" id="russia" xmlns="http://www.w3.org/2000/svg"><path fill="#f0f0f0" d="M0 85.33v341.332h512V85.33z"/><path fill="#0052b4" d="M0 85.333h512V426.67H0z"/><path fill="#f0f0f0" d="M0 85.333h512v113.775H0z"/><path fill="#d80027" d="M0 312.884h512v113.775H0z"/></svg><svg fill="none" viewBox="0 0 92 79" id="transportation--01" xmlns="http://www.w3.org/2000/svg"><circle cx="27.5" cy="27.5" r="27.5" fill="#009C4B"/><path d="M32.653 55.145h-.011c-.591 0-1.064.48-1.064 1.07 0 .59.485 1.07 1.075 1.07a1.07 1.07 0 000-2.14zm9.143 0h-.011c-.59 0-1.064.48-1.064 1.07 0 .59.485 1.07 1.075 1.07a1.07 1.07 0 000-2.14zm37.717 0h-.011c-.591 0-1.064.48-1.064 1.07 0 .59.484 1.07 1.075 1.07a1.07 1.07 0 000-2.14z" fill="#000"/><path d="M91.017 42.217l-1.437-1.438-2.897-8.69a1.07 1.07 0 00-.324-2.088H76v-4.645c0-1.22-.992-2.212-2.212-2.212H21.212c-1.22 0-2.212.993-2.212 2.212v25.145c0 1.22.992 2.212 2.212 2.212h1.217v2.359c0 1.22.992 2.212 2.212 2.212h2.462a5.65 5.65 0 005.538 4.572c1.88 0 3.547-.925 4.572-2.343a5.636 5.636 0 004.572 2.343 5.65 5.65 0 005.538-4.572h26.64a5.65 5.65 0 005.538 4.572 5.648 5.648 0 005.641-5.642l-.001-.072h4.647c1.22 0 2.212-.993 2.212-2.213v-9.34c0-.896-.349-1.738-.983-2.372zM27.103 55.145h-2.462a.074.074 0 01-.074-.073v-2.36h3.657a5.62 5.62 0 00-1.12 2.433zm5.538 4.572a3.506 3.506 0 01-3.502-3.502c0-1.924 1.56-3.49 3.48-3.502h.045a3.506 3.506 0 013.48 3.502 3.507 3.507 0 01-3.502 3.502zm9.144 0a3.506 3.506 0 01-3.502-3.502 3.506 3.506 0 013.48-3.502h.044a3.506 3.506 0 013.48 3.502 3.507 3.507 0 01-3.502 3.502zm32.179-4.572h-26.64a5.618 5.618 0 00-1.121-2.432h20.726a1.07 1.07 0 000-2.139H21.212a.073.073 0 01-.073-.073V25.356c0-.04.033-.073.073-.073h52.575c.04 0 .073.033.073.073v25.218h-2.359a1.07 1.07 0 100 2.139h3.583a5.618 5.618 0 00-1.12 2.432zM87.542 41.43h-6.898a.074.074 0 01-.073-.073V36.71h5.398l1.573 4.72zm-8.04 18.287a3.506 3.506 0 01-3.503-3.502c0-1.924 1.56-3.49 3.48-3.502h.03a3.506 3.506 0 013.495 3.502 3.507 3.507 0 01-3.502 3.502zm10.36-5.787c0 .04-.033.073-.074.073H84.69a5.65 5.65 0 00-5.188-3.43l-.022.001H76v-18.36c0-.041.032-.074.073-.074h8.373l.81 2.433h-5.754a1.07 1.07 0 00-1.07 1.069v5.715c0 1.22.993 2.212 2.212 2.212h8.7l.161.16c.23.23.357.535.357.86v2.556h-1.217a1.07 1.07 0 000 2.14h1.217v4.645z" fill="#000"/><path d="M70.358 46.003H24.641a1.07 1.07 0 000 2.139h45.717a1.07 1.07 0 100-2.14z" fill="#000"/></svg><svg fill="none" viewBox="0 0 92 72" id="transportation--02" xmlns="http://www.w3.org/2000/svg"><circle cx="27.5" cy="27.5" r="27.5" fill="#009C4B"/><g clip-path="url(#lclip0)" fill="#000"><path d="M90.49 43.793a5.284 5.284 0 00-2.78-1.351c-1.47-5.31-6.648-9.088-12.606-9.088H35.53l-4.69-11.008c-.337-.79-1.145-1.301-2.058-1.301h-7.569c-1.22 0-2.213.925-2.213 2.061v21.94c0 3.85 3.363 6.983 7.496 6.983h6.89c.592 0 1.071-.447 1.071-.998 0-.55-.48-.998-1.07-.998h-6.891c-2.952 0-5.354-2.237-5.354-4.987V31.02h11.09l1.433 3.364c.251.586.85.965 1.526.965h39.912c2.157 0 4.19.594 5.902 1.625h-4.57c-.906 0-1.643.686-1.643 1.53v4.324c0 .843.737 1.529 1.642 1.529h10.263c.044.005.09.01.135.01a3.124 3.124 0 012.14.834 2.72 2.72 0 01.887 1.998c0 1.502-1.26 2.744-2.867 2.83a1.078 1.078 0 00-.062.004H62.77v-1.729h4.678c1.76 0 3.19-1.333 3.19-2.971 0-1.638-1.43-2.971-3.19-2.971H43.551c-1.76 0-3.19 1.333-3.19 2.971 0 1.639 1.43 2.971 3.19 2.971h4.537a4.116 4.116 0 00-.688 1.73h-9.016c-.592 0-1.071.446-1.071.997 0 .55.48.997 1.07.997h9.22c.626 1.7 2.357 2.927 4.391 2.927h9.135c.906 0 1.642-.686 1.642-1.53v-1.397h24.282c.067 0 .133-.005.197-.017C89.924 51.804 92 49.715 92 47.2c0-1.286-.536-2.495-1.51-3.406zM21.213 23.04h7.569c.03 0 .056.017.067.042l.832 1.953h-8.54v-1.928c0-.037.033-.067.072-.067zm-.071 5.985V27.03h9.39l.85 1.995h-10.24zm55.792 9.944h6.5a9.897 9.897 0 012.019 3.393h-8.519V38.97zm-34.431 6.364c0-.538.47-.976 1.048-.976h23.898c.578 0 1.048.438 1.048.976 0 .539-.47.977-1.048.977H43.551c-.578 0-1.048-.438-1.048-.977zm6.993 5.3c0-1.284 1.12-2.328 2.498-2.328h4.984v4.655h-4.984c-1.377 0-2.498-1.044-2.498-2.328zm11.133 2.327h-1.51v-4.655h1.51v4.655z"/><path d="M71.936 39.302v-1.33c0-.551-.48-.998-1.07-.998-.592 0-1.071.447-1.071.998v1.33c0 .55.48.997 1.07.997.592 0 1.071-.447 1.071-.997zm-24.986 0v-1.33c0-.551-.48-.998-1.07-.998-.592 0-1.072.447-1.072.998v1.33c0 .55.48.997 1.071.997.592 0 1.071-.447 1.071-.997zm19.989 0v-1.33c0-.551-.48-.998-1.07-.998-.592 0-1.072.447-1.072.998v1.33c0 .55.48.997 1.071.997.592 0 1.071-.447 1.071-.997zm-24.986 0v-1.33c0-.551-.48-.998-1.071-.998s-1.071.447-1.071.998v1.33c0 .55.48.997 1.07.997.592 0 1.072-.447 1.072-.997zm19.989 0v-1.33c0-.551-.48-.998-1.071-.998-.592 0-1.071.447-1.071.998v1.33c0 .55.48.997 1.07.997.592 0 1.072-.447 1.072-.997zm-26.057-2.328c-.592 0-1.071.447-1.071.998v1.33c0 .55.48.997 1.07.997.592 0 1.072-.447 1.072-.997v-1.33c0-.551-.48-.998-1.071-.998zm21.059 2.328v-1.33c0-.551-.479-.998-1.07-.998-.592 0-1.071.447-1.071.998v1.33c0 .55.48.997 1.07.997.592 0 1.072-.447 1.072-.997zm-4.997 0v-1.33c0-.551-.48-.998-1.07-.998-.592 0-1.072.447-1.072.998v1.33c0 .55.48.997 1.071.997.592 0 1.071-.447 1.071-.997zM24.783 43.25h3.627c.592 0 1.071-.446 1.071-.997 0-.551-.48-.998-1.07-.998h-3.628c-.592 0-1.071.447-1.071.998 0 .55.48.997 1.07.997zm0 4.39h7.255c.592 0 1.071-.447 1.071-.998 0-.55-.48-.998-1.07-.998h-7.256c-.592 0-1.071.447-1.071.998 0 .55.48.997 1.07.997z"/></g><defs><clipPath id="lclip0"><path fill="#fff" transform="translate(19 4)" d="M0 0h73v68H0z"/></clipPath></defs></svg><svg fill="none" viewBox="0 0 86 70" id="transportation--03" xmlns="http://www.w3.org/2000/svg"><circle cx="27.5" cy="27.5" r="27.5" fill="#009C4B"/><g clip-path="url(#mclip0)" fill="#000"><path d="M78.928 53.473c-.227-.409-.778-.574-1.23-.369-.453.205-.636.703-.409 1.112l1.689 3.038c.16.29.484.457.82.457a.994.994 0 00.41-.088c.453-.205.636-.703.408-1.111l-1.688-3.04z"/><path d="M85.343 58.29l-3.76-6.675c-.526-.934-1.262-1.44-2.38-1.606v-1.876h1.091c1.615 0 2.928-1.187 2.928-2.645v-5.885c0-1.456-1.313-2.642-2.927-2.642h-1.091v-1.038c0-1.291-1.164-2.341-2.595-2.341h-1.691V27.57h.857c1.456 0 2.64-1.07 2.64-2.384v-1.56c0-1.315-1.184-2.384-2.64-2.384H64.166c-1.455 0-2.639 1.07-2.639 2.384v1.56c0 1.314 1.184 2.384 2.64 2.384h.857v6.012H60.57v-2.223c0-1.168-1.052-2.118-2.344-2.118h-1.692c-1.295 0-2.348.95-2.348 2.118v2.223h-5.3v-7.503c1.637-.308 2.872-1.622 2.872-3.19 0-1.796-1.618-3.257-3.607-3.257h-19.45c-1.99 0-3.607 1.46-3.607 3.256 0 1.57 1.236 2.885 2.875 3.191v23.867h-1.92c-1.13 0-2.05.83-2.05 1.852v3.236c0 1.021.92 1.852 2.05 1.852h2.875c.462 4.194 4.388 7.481 9.148 7.481 4.762 0 8.69-3.287 9.151-7.481h6.041c.462 4.194 4.39 7.481 9.151 7.481 4.76 0 8.687-3.287 9.148-7.481h1.321c.273 0 .553-.001.7.01.052.079.126.207.193.323.079.136.17.294.283.479l.01.017.716 1.108c.86 1.403 1.978 1.522 3.16 1.648.258.027.524.055.814.097l4.618.667c.329.047.69.1 1.04.1.512 0 .998-.112 1.322-.514.505-.624.222-1.431-.397-2.531zm-6.14-19.673h1.091c.604 0 1.095.443 1.095.986v5.885c0 .545-.491.989-1.094.989h-1.091v-7.86zM64.167 25.914c-.444 0-.805-.327-.805-.729v-1.559c0-.402.361-.728.805-.728h11.61c.444 0 .805.326.805.728v1.56c0 .401-.361.728-.806.728h-11.61zm8.918 1.656v6.012h-6.227V27.57h6.227zm-17.063 3.789c0-.25.235-.462.514-.462h1.691c.282 0 .511.207.511.462v2.223h-2.716v-2.223zm-29.093-8.47c0-.883.796-1.6 1.774-1.6h19.45c.977 0 1.773.717 1.773 1.6 0 .883-.795 1.602-1.773 1.602H28.702c-.978 0-1.774-.72-1.774-1.603zm11.76 21.697h.003l8.362-.028v5.388h-17.25v-5.391h5.343c.506 0 .917-.37.917-.828 0-.458-.41-.828-.917-.828h-5.342V26.147h17.249v16.755l-8.369.028c-.506.001-.915.373-.913.83.002.457.412.826.916.826zm-.615 18.125c-3.748 0-6.85-2.546-7.303-5.825h2.333c.432 2.126 2.496 3.742 4.97 3.742 2.477 0 4.541-1.616 4.974-3.742h2.333c-.453 3.28-3.557 5.825-7.307 5.825zm-3.09-5.825h6.183c-.396 1.205-1.633 2.086-3.093 2.086-1.458 0-2.694-.881-3.09-2.086zm27.433 5.825c-3.75 0-6.854-2.546-7.306-5.825h2.333c.432 2.126 2.497 3.742 4.973 3.742 2.475 0 4.538-1.616 4.97-3.742h2.334c-.453 3.28-3.555 5.825-7.304 5.825zm-3.092-5.825h6.182c-.396 1.205-1.631 2.086-3.09 2.086-1.46 0-2.696-.881-3.092-2.086zm24.344 2.713l-4.619-.666c-.327-.047-.625-.08-.888-.107-1.08-.115-1.37-.146-1.775-.811l-.011-.018-.715-1.108a19.624 19.624 0 01-.257-.435c-.642-1.111-1.022-1.224-2.482-1.224H26.049c-.117 0-.216-.09-.216-.195v-3.237c0-.106.1-.196.216-.196h30.887c.506 0 .917-.37.917-.828 0-.457-.41-.828-.917-.828h-8.05V35.238H76.61c.413 0 .761.313.761.685v14.023H61.126c-.506 0-.917.371-.917.829 0 .457.41.828.917.828h17.161c1.149 0 1.394.288 1.66.762l3.761 6.676c.146.258.245.456.312.606-.103-.013-.22-.028-.352-.047z"/><path d="M63.127 40.561h7.593c.507 0 .917-.37.917-.828 0-.457-.41-.828-.916-.828h-7.594c-.507 0-.917.371-.917.828 0 .458.41.828.917.828zm0 4.537h7.593c.507 0 .917-.371.917-.828 0-.458-.41-.829-.916-.829h-7.594c-.507 0-.917.371-.917.828 0 .458.41.829.917.829zM44.824 36.81v-7.392c0-1.041-.938-1.889-2.09-1.889h-8.8c-1.152 0-2.09.847-2.09 1.889v7.391c0 1.042.938 1.889 2.09 1.889h8.8c1.152 0 2.09-.847 2.09-1.889zm-11.146 0v-7.392c0-.126.117-.232.257-.232h8.798c.14 0 .257.106.257.232v7.391c0 .126-.118.233-.257.233h-8.798c-.14 0-.257-.107-.257-.233z"/></g><defs><clipPath id="mclip0"><path fill="#fff" transform="translate(24 14)" d="M0 0h62v56H0z"/></clipPath></defs></svg><svg fill="none" viewBox="0 0 85 70" id="transportation--04" xmlns="http://www.w3.org/2000/svg"><circle cx="27.5" cy="27.5" r="27.5" fill="#009C4B"/><g clip-path="url(#nclip0)"><path d="M84.718 40.155c-.332-.483-.9-.771-1.52-.771h-8.172c-1.457 0-2.642 1.095-2.642 2.442a.604.604 0 01-.006.078v-5.758c0-.828-.728-1.501-1.624-1.501h-7.076v-6.69c0-.637-.56-1.156-1.25-1.156H45.593c-.69 0-1.25.519-1.25 1.156v14.523h-2.995v-5.283c.702-.002 1.273-.53 1.273-1.18v-2.187c0-.65-.572-1.18-1.276-1.18h-2.88V26.07c0-.737-.648-1.337-1.446-1.337h-4.154v-4.395c0-.5-.439-.905-.98-.905-.54 0-.978.405-.978.905v4.396h-4.155c-.797 0-1.445.599-1.445 1.336v6.579h-2.88c-.704 0-1.277.529-1.277 1.18v2.186c0 .65.571 1.178 1.274 1.18v5.283h-1.748c-.507 0-.982.209-1.302.573-.32.364-.442.836-.337 1.294.703 3.077 2.407 6.078 4.926 8.678a.96.96 0 01.27.623l.002.016a.938.938 0 01-.007.134c0 .009 0 .017-.002.026a.921.921 0 01-.028.122c-.003.01-.004.021-.008.032a.958.958 0 01-.06.146l-1.58 3.058a1.55 1.55 0 00.101 1.609c.333.487.904.778 1.527.778h50.453c.695 0 1.334-.375 1.63-.956l8.567-16.856a1.548 1.548 0 00-.11-1.6zm-21.04-3.72h6.763v6.043h-6.763v-6.043zm-8.7-7.846h6.764v6.056h-6.763v-6.056zm0 7.846h6.764v6.043h-6.763v-6.043zM46.28 28.59h6.763v6.056H46.28V28.59zm0 7.846h6.763v6.043H46.28v-6.043zm-19.036-9.912h9.286v6.126h-9.286v-6.126zm-4.156 7.915h17.598v.967H29.733c-.535 0-.969.4-.969.895 0 .494.434.895.969.895h9.678v5.283h-15.05v-5.283h.818c.535 0 .968-.4.968-.895 0-.494-.433-.895-.968-.895h-2.092v-.967zm54.174 17.995h-9.6c-.534 0-.968.4-.968.895 0 .494.434.895.969.895h8.69l-1.808 3.554H24.388l1.49-2.883c.031-.06.059-.12.085-.181l.023-.058c.016-.041.033-.083.047-.126l.023-.07a2.448 2.448 0 00.053-.197l.01-.04h36.99c.535 0 .968-.4.968-.894 0-.495-.433-.895-.968-.895H25.85a2.788 2.788 0 00-.444-.604c-2.246-2.318-3.726-4.86-4.404-7.561l50.407.013c.055 0 .217-.005.269-.013 1.457 0 2.642-1.096 2.642-2.442 0-.36.317-.652.706-.652h7.958L77.26 52.433z" fill="#000"/></g><defs><clipPath id="nclip0"><path fill="#fff" transform="translate(19 9)" d="M0 0h66v61H0z"/></clipPath></defs></svg><svg fill="none" viewBox="0 0 20 20" id="vk" xmlns="http://www.w3.org/2000/svg"><g clip-path="url(#oclip0)"><path d="M19.822 14.472c-.054-.09-.386-.812-1.987-2.297-1.675-1.556-1.45-1.303.568-3.992 1.229-1.638 1.72-2.638 1.566-3.065-.146-.408-1.05-.3-1.05-.3l-3.005.017s-.223-.03-.389.07c-.161.097-.265.322-.265.322s-.476 1.267-1.111 2.345c-1.339 2.274-1.875 2.394-2.094 2.252-.509-.328-.381-1.322-.381-2.027 0-2.204.333-3.123-.652-3.36-.327-.08-.567-.132-1.404-.14-1.072-.012-1.98.003-2.495.255-.342.167-.606.54-.445.562.199.026.65.121.888.446.309.42.297 1.362.297 1.362s.178 2.594-.413 2.916c-.407.222-.963-.23-2.157-2.294C4.682 6.488 4.22 5.32 4.22 5.32s-.088-.217-.247-.334A1.273 1.273 0 003.51 4.8l-2.857.018s-.43.012-.587.198c-.14.167-.011.51-.011.51s2.238 5.233 4.77 7.872c2.324 2.42 4.962 2.26 4.962 2.26h1.195s.361-.04.545-.238c.17-.183.164-.525.164-.525s-.024-1.604.721-1.84c.734-.233 1.677 1.55 2.675 2.236.755.519 1.33.405 1.33.405l2.67-.038s1.398-.086.736-1.185z" fill="#E6212A"/></g><defs><clipPath id="oclip0"><path fill="#fff" d="M0 0h20v20H0z"/></clipPath></defs></svg><svg fill="none" viewBox="0 0 20 20" id="whatsapp" xmlns="http://www.w3.org/2000/svg"><path d="M10.002 0h-.005C4.485 0 0 4.485 0 10c0 2.188.705 4.215 1.904 5.861L.658 19.576 4.5 18.347A9.913 9.913 0 0010.002 20C15.517 20 20 15.514 20 10S15.516 0 10.002 0zm5.82 14.121c-.242.681-1.2 1.246-1.963 1.412-.523.11-1.205.2-3.503-.753-2.938-1.217-4.831-4.204-4.978-4.397C5.236 10.188 4.19 8.8 4.19 7.366c0-1.435.729-2.133 1.022-2.433.242-.247.64-.36 1.023-.36.124 0 .235.007.335.012.294.013.441.03.635.494.241.581.829 2.016.899 2.163.071.148.142.348.042.542-.094.2-.176.288-.324.458-.147.17-.287.3-.434.483-.135.159-.288.329-.118.623.17.287.758 1.246 1.623 2.016 1.116.993 2.02 1.311 2.345 1.446.24.1.528.076.705-.111.223-.242.5-.642.78-1.035.2-.283.453-.318.718-.218.27.094 1.699.8 1.993.947.293.147.487.217.559.34.07.124.07.706-.172 1.388z" fill="#E6212A"/></svg></svg>